<svg width="14" height="14" viewBox="0 0 14 14" fill="none" xmlns="http://www.w3.org/2000/svg">
<g clip-path="url(#clip0)">
<path fill-rule="evenodd" clip-rule="evenodd" d="M10.5 6.125C10.5 8.54125 8.54125 10.5 6.125 10.5C3.70875 10.5 1.75 8.54125 1.75 6.125C1.75 3.70875 3.70875 1.75 6.125 1.75C8.54125 1.75 10.5 3.70875 10.5 6.125ZM9.7932 11.0306C8.77068 11.7964 7.50081 12.25 6.125 12.25C2.74226 12.25 0 9.50774 0 6.125C0 2.74226 2.74226 0 6.125 0C9.50774 0 12.25 2.74226 12.25 6.125C12.25 7.50077 11.7964 8.7706 11.0306 9.7931L13.8559 12.6184L12.6185 13.8558L9.7932 11.0306Z" fill="#177D92"/>
</g>
<defs>
<clipPath id="clip0">
<rect width="14" height="14" fill="white"/>
</clipPath>
</defs>
</svg>
