<svg width="56" height="59" viewBox="0 0 56 59" fill="none" xmlns="http://www.w3.org/2000/svg">
<path d="M9.93401 41.453C10.22 41.453 10.454 41.4313 10.636 41.388C10.8267 41.336 10.9783 41.271 11.091 41.193C11.2037 41.1063 11.2817 41.0067 11.325 40.894C11.3683 40.7813 11.39 40.6557 11.39 40.517C11.39 40.2223 11.2513 39.9797 10.974 39.789C10.6967 39.5897 10.22 39.3773 9.54401 39.152C9.24935 39.048 8.95468 38.931 8.66001 38.801C8.36535 38.6623 8.10101 38.4933 7.86701 38.294C7.63301 38.086 7.44235 37.839 7.29501 37.553C7.14768 37.2583 7.07401 36.903 7.07401 36.487C7.07401 36.071 7.15201 35.6983 7.30801 35.369C7.46401 35.031 7.68501 34.745 7.97101 34.511C8.25701 34.277 8.60368 34.0993 9.01101 33.978C9.41835 33.848 9.87768 33.783 10.389 33.783C10.9957 33.783 11.52 33.848 11.962 33.978C12.404 34.108 12.768 34.251 13.054 34.407L12.469 36.006C12.2177 35.876 11.936 35.7633 11.624 35.668C11.3207 35.564 10.9523 35.512 10.519 35.512C10.0337 35.512 9.68268 35.5813 9.46601 35.72C9.25801 35.85 9.15401 36.0537 9.15401 36.331C9.15401 36.4957 9.19301 36.6343 9.27101 36.747C9.34901 36.8597 9.45735 36.9637 9.59601 37.059C9.74335 37.1457 9.90801 37.228 10.09 37.306C10.2807 37.3753 10.4887 37.449 10.714 37.527C11.182 37.7003 11.5893 37.8737 11.936 38.047C12.2827 38.2117 12.5687 38.4067 12.794 38.632C13.028 38.8573 13.2013 39.1217 13.314 39.425C13.4267 39.7283 13.483 40.0967 13.483 40.53C13.483 41.3707 13.1883 42.025 12.599 42.493C12.0097 42.9523 11.1213 43.182 9.93401 43.182C9.53535 43.182 9.17568 43.156 8.85501 43.104C8.53435 43.0607 8.24835 43.0043 7.99701 42.935C7.75435 42.8657 7.54201 42.792 7.36001 42.714C7.18668 42.636 7.03935 42.5623 6.91801 42.493L7.49001 40.881C7.75868 41.0283 8.08801 41.1627 8.47801 41.284C8.87668 41.3967 9.36201 41.453 9.93401 41.453ZM16.7464 38.489C16.7464 38.931 16.7984 39.3297 16.9024 39.685C17.0151 40.0403 17.1711 40.348 17.3704 40.608C17.5784 40.8593 17.8298 41.0543 18.1244 41.193C18.4191 41.3317 18.7571 41.401 19.1384 41.401C19.5111 41.401 19.8448 41.3317 20.1394 41.193C20.4428 41.0543 20.6941 40.8593 20.8934 40.608C21.1014 40.348 21.2574 40.0403 21.3614 39.685C21.4741 39.3297 21.5304 38.931 21.5304 38.489C21.5304 38.047 21.4741 37.6483 21.3614 37.293C21.2574 36.929 21.1014 36.6213 20.8934 36.37C20.6941 36.11 20.4428 35.9107 20.1394 35.772C19.8448 35.6333 19.5111 35.564 19.1384 35.564C18.7571 35.564 18.4191 35.6377 18.1244 35.785C17.8298 35.9237 17.5784 36.123 17.3704 36.383C17.1711 36.6343 17.0151 36.942 16.9024 37.306C16.7984 37.6613 16.7464 38.0557 16.7464 38.489ZM23.6234 38.489C23.6234 39.2603 23.5064 39.9407 23.2724 40.53C23.0471 41.1107 22.7351 41.6003 22.3364 41.999C21.9378 42.389 21.4611 42.6837 20.9064 42.883C20.3604 43.0823 19.7711 43.182 19.1384 43.182C18.5231 43.182 17.9424 43.0823 17.3964 42.883C16.8504 42.6837 16.3738 42.389 15.9664 41.999C15.5591 41.6003 15.2384 41.1107 15.0044 40.53C14.7704 39.9407 14.6534 39.2603 14.6534 38.489C14.6534 37.7177 14.7748 37.0417 15.0174 36.461C15.2601 35.8717 15.5851 35.3777 15.9924 34.979C16.4084 34.5803 16.8851 34.2813 17.4224 34.082C17.9684 33.8827 18.5404 33.783 19.1384 33.783C19.7538 33.783 20.3344 33.8827 20.8804 34.082C21.4264 34.2813 21.9031 34.5803 22.3104 34.979C22.7178 35.3777 23.0384 35.8717 23.2724 36.461C23.5064 37.0417 23.6234 37.7177 23.6234 38.489ZM28.3169 43.117C27.8229 43.117 27.3289 43.0997 26.8349 43.065C26.3496 43.039 25.8426 42.9697 25.3139 42.857V34.121C25.7299 34.043 26.1849 33.9867 26.6789 33.952C27.1729 33.9087 27.6323 33.887 28.0569 33.887C28.6289 33.887 29.1533 33.9303 29.6299 34.017C30.1153 34.095 30.5313 34.2337 30.8779 34.433C31.2246 34.6323 31.4933 34.8967 31.6839 35.226C31.8833 35.5467 31.9829 35.9453 31.9829 36.422C31.9829 37.1413 31.6363 37.709 30.9429 38.125C31.5149 38.3417 31.9049 38.6363 32.1129 39.009C32.3209 39.3817 32.4249 39.802 32.4249 40.27C32.4249 41.2147 32.0783 41.9253 31.3849 42.402C30.7003 42.8787 29.6776 43.117 28.3169 43.117ZM27.2899 39.074V41.401C27.4373 41.4183 27.5976 41.4313 27.7709 41.44C27.9443 41.4487 28.1349 41.453 28.3429 41.453C28.9496 41.453 29.4393 41.3663 29.8119 41.193C30.1846 41.0197 30.3709 40.699 30.3709 40.231C30.3709 39.815 30.2149 39.5203 29.9029 39.347C29.5909 39.165 29.1446 39.074 28.5639 39.074H27.2899ZM27.2899 37.527H28.2779C28.9019 37.527 29.3483 37.449 29.6169 37.293C29.8856 37.1283 30.0199 36.8683 30.0199 36.513C30.0199 36.149 29.8813 35.8933 29.6039 35.746C29.3266 35.5987 28.9193 35.525 28.3819 35.525C28.2086 35.525 28.0223 35.5293 27.8229 35.538C27.6236 35.538 27.4459 35.5467 27.2899 35.564V37.527ZM34.0483 43V33.991H40.1323V35.694H36.0763V37.462H39.6773V39.126H36.0763V41.297H40.4313V43H34.0483ZM44.5711 33.887C45.9231 33.887 46.9588 34.1297 47.6781 34.615C48.3974 35.0917 48.7571 35.837 48.7571 36.851C48.7571 37.4837 48.6098 37.9993 48.3151 38.398C48.0291 38.788 47.6131 39.0957 47.0671 39.321C47.2491 39.5463 47.4398 39.8063 47.6391 40.101C47.8384 40.387 48.0334 40.6903 48.2241 41.011C48.4234 41.323 48.6141 41.6523 48.7961 41.999C48.9781 42.337 49.1471 42.6707 49.3031 43H47.0281C46.8634 42.7053 46.6944 42.4063 46.5211 42.103C46.3564 41.7997 46.1831 41.505 46.0011 41.219C45.8278 40.933 45.6544 40.6643 45.4811 40.413C45.3078 40.153 45.1344 39.919 44.9611 39.711H43.9601V43H41.9321V34.121C42.3741 34.0343 42.8291 33.9737 43.2971 33.939C43.7738 33.9043 44.1984 33.887 44.5711 33.887ZM44.6881 35.616C44.5408 35.616 44.4064 35.6203 44.2851 35.629C44.1724 35.6377 44.0641 35.6463 43.9601 35.655V38.099H44.5321C45.2948 38.099 45.8408 38.0037 46.1701 37.813C46.4994 37.6223 46.6641 37.2973 46.6641 36.838C46.6641 36.396 46.4951 36.084 46.1571 35.902C45.8278 35.7113 45.3381 35.616 44.6881 35.616ZM14.7899 46.991H16.8179V56H14.7899V52.178H11.3839V56H9.35592V46.991H11.3839V50.436H14.7899V46.991ZM20.6058 51.489C20.6058 51.931 20.6578 52.3297 20.7618 52.685C20.8745 53.0403 21.0305 53.348 21.2298 53.608C21.4378 53.8593 21.6891 54.0543 21.9838 54.193C22.2785 54.3317 22.6165 54.401 22.9978 54.401C23.3705 54.401 23.7041 54.3317 23.9988 54.193C24.3021 54.0543 24.5535 53.8593 24.7528 53.608C24.9608 53.348 25.1168 53.0403 25.2208 52.685C25.3335 52.3297 25.3898 51.931 25.3898 51.489C25.3898 51.047 25.3335 50.6483 25.2208 50.293C25.1168 49.929 24.9608 49.6213 24.7528 49.37C24.5535 49.11 24.3021 48.9107 23.9988 48.772C23.7041 48.6333 23.3705 48.564 22.9978 48.564C22.6165 48.564 22.2785 48.6377 21.9838 48.785C21.6891 48.9237 21.4378 49.123 21.2298 49.383C21.0305 49.6343 20.8745 49.942 20.7618 50.306C20.6578 50.6613 20.6058 51.0557 20.6058 51.489ZM27.4828 51.489C27.4828 52.2603 27.3658 52.9407 27.1318 53.53C26.9065 54.1107 26.5945 54.6003 26.1958 54.999C25.7971 55.389 25.3205 55.6837 24.7658 55.883C24.2198 56.0823 23.6305 56.182 22.9978 56.182C22.3825 56.182 21.8018 56.0823 21.2558 55.883C20.7098 55.6837 20.2331 55.389 19.8258 54.999C19.4185 54.6003 19.0978 54.1107 18.8638 53.53C18.6298 52.9407 18.5128 52.2603 18.5128 51.489C18.5128 50.7177 18.6341 50.0417 18.8768 49.461C19.1195 48.8717 19.4445 48.3777 19.8518 47.979C20.2678 47.5803 20.7445 47.2813 21.2818 47.082C21.8278 46.8827 22.3998 46.783 22.9978 46.783C23.6131 46.783 24.1938 46.8827 24.7398 47.082C25.2858 47.2813 25.7625 47.5803 26.1698 47.979C26.5771 48.3777 26.8978 48.8717 27.1318 49.461C27.3658 50.0417 27.4828 50.7177 27.4828 51.489ZM31.5653 46.991C31.7213 47.277 31.899 47.6323 32.0983 48.057C32.3063 48.473 32.5186 48.928 32.7353 49.422C32.9606 49.9073 33.1816 50.4057 33.3983 50.917C33.615 51.4283 33.8186 51.9093 34.0093 52.36C34.2 51.9093 34.4036 51.4283 34.6203 50.917C34.837 50.4057 35.0536 49.9073 35.2703 49.422C35.4956 48.928 35.708 48.473 35.9073 48.057C36.1153 47.6323 36.2973 47.277 36.4533 46.991H38.2993C38.386 47.589 38.464 48.2607 38.5333 49.006C38.6113 49.7427 38.6763 50.514 38.7283 51.32C38.789 52.1173 38.841 52.919 38.8843 53.725C38.9363 54.531 38.9796 55.2893 39.0143 56H37.0383C37.0123 55.1247 36.9776 54.1713 36.9343 53.14C36.891 52.1087 36.826 51.0687 36.7393 50.02C36.5833 50.384 36.41 50.787 36.2193 51.229C36.0286 51.671 35.838 52.113 35.6473 52.555C35.4653 52.997 35.2876 53.4217 35.1143 53.829C34.941 54.2277 34.7936 54.57 34.6723 54.856H33.2553C33.134 54.57 32.9866 54.2277 32.8133 53.829C32.64 53.4217 32.458 52.997 32.2673 52.555C32.0853 52.113 31.899 51.671 31.7083 51.229C31.5176 50.787 31.3443 50.384 31.1883 50.02C31.1016 51.0687 31.0366 52.1087 30.9933 53.14C30.95 54.1713 30.9153 55.1247 30.8893 56H28.9133C28.948 55.2893 28.987 54.531 29.0303 53.725C29.0823 52.919 29.1343 52.1173 29.1863 51.32C29.247 50.514 29.312 49.7427 29.3813 49.006C29.4593 48.2607 29.5416 47.589 29.6283 46.991H31.5653ZM40.8403 56V46.991H46.9243V48.694H42.8683V50.462H46.4693V52.126H42.8683V54.297H47.2233V56H40.8403Z" fill="white"/>
<path d="M28 26C33.9672 10.601 48.7213 8.20199 48.7213 8.20199C46.7213 12.5785 38.6557 17.8629 38.6557 17.8629C49.7705 13.5511 54.8852 2.82045 56 0.226937C56 0.0648419 56 0 56 0C53.2787 3.01496 51.9672 2.75561 39.8361 8.65586C32.0656 12.4165 29.1147 19.0299 28 23.4713C26.8852 19.0623 23.9344 12.4165 16.1639 8.65586C4.03279 2.78803 2.72131 3.01496 0 0C0 0 0 0.0972608 0 0.226937C1.08197 2.82045 6.19672 13.5511 17.3443 17.8629C17.3443 17.8629 9.27868 12.5785 7.27868 8.20199C7.27868 8.16957 22.0328 10.5686 28 26Z" fill="white"/>
</svg>
