<svg width="108" height="27" viewBox="0 0 108 27" fill="none" xmlns="http://www.w3.org/2000/svg">
<rect width="108" height="27" fill="#E5E5E5"/>
<g clip-path="url(#clip0)">
<rect width="1440" height="3884" transform="translate(-118 -20)" fill="white"/>
<g filter="url(#filter0_d)">
<rect x="-118" y="-20" width="1440" height="68" fill="white"/>
</g>
<path d="M67.497 9.453C67.783 9.453 68.017 9.43133 68.199 9.388C68.3897 9.336 68.5413 9.271 68.654 9.193C68.7667 9.10633 68.8447 9.00667 68.888 8.894C68.9313 8.78133 68.953 8.65567 68.953 8.517C68.953 8.22233 68.8143 7.97967 68.537 7.789C68.2597 7.58967 67.783 7.37733 67.107 7.152C66.8123 7.048 66.5177 6.931 66.223 6.801C65.9283 6.66233 65.664 6.49333 65.43 6.294C65.196 6.086 65.0053 5.839 64.858 5.553C64.7107 5.25833 64.637 4.903 64.637 4.487C64.637 4.071 64.715 3.69833 64.871 3.369C65.027 3.031 65.248 2.745 65.534 2.511C65.82 2.277 66.1667 2.09933 66.574 1.978C66.9813 1.848 67.4407 1.783 67.952 1.783C68.5587 1.783 69.083 1.848 69.525 1.978C69.967 2.108 70.331 2.251 70.617 2.407L70.032 4.006C69.7807 3.876 69.499 3.76333 69.187 3.668C68.8837 3.564 68.5153 3.512 68.082 3.512C67.5967 3.512 67.2457 3.58133 67.029 3.72C66.821 3.85 66.717 4.05367 66.717 4.331C66.717 4.49567 66.756 4.63433 66.834 4.747C66.912 4.85967 67.0203 4.96367 67.159 5.059C67.3063 5.14567 67.471 5.228 67.653 5.306C67.8437 5.37533 68.0517 5.449 68.277 5.527C68.745 5.70033 69.1523 5.87367 69.499 6.047C69.8457 6.21167 70.1317 6.40667 70.357 6.632C70.591 6.85733 70.7643 7.12167 70.877 7.425C70.9897 7.72833 71.046 8.09667 71.046 8.53C71.046 9.37067 70.7513 10.025 70.162 10.493C69.5727 10.9523 68.6843 11.182 67.497 11.182C67.0983 11.182 66.7387 11.156 66.418 11.104C66.0973 11.0607 65.8113 11.0043 65.56 10.935C65.3173 10.8657 65.105 10.792 64.923 10.714C64.7497 10.636 64.6023 10.5623 64.481 10.493L65.053 8.881C65.3217 9.02833 65.651 9.16267 66.041 9.284C66.4397 9.39667 66.925 9.453 67.497 9.453ZM74.3094 6.489C74.3094 6.931 74.3614 7.32967 74.4654 7.685C74.5781 8.04033 74.7341 8.348 74.9334 8.608C75.1414 8.85933 75.3927 9.05433 75.6874 9.193C75.9821 9.33167 76.3201 9.401 76.7014 9.401C77.0741 9.401 77.4077 9.33167 77.7024 9.193C78.0057 9.05433 78.2571 8.85933 78.4564 8.608C78.6644 8.348 78.8204 8.04033 78.9244 7.685C79.0371 7.32967 79.0934 6.931 79.0934 6.489C79.0934 6.047 79.0371 5.64833 78.9244 5.293C78.8204 4.929 78.6644 4.62133 78.4564 4.37C78.2571 4.11 78.0057 3.91067 77.7024 3.772C77.4077 3.63333 77.0741 3.564 76.7014 3.564C76.3201 3.564 75.9821 3.63767 75.6874 3.785C75.3927 3.92367 75.1414 4.123 74.9334 4.383C74.7341 4.63433 74.5781 4.942 74.4654 5.306C74.3614 5.66133 74.3094 6.05567 74.3094 6.489ZM81.1864 6.489C81.1864 7.26033 81.0694 7.94067 80.8354 8.53C80.6101 9.11067 80.2981 9.60033 79.8994 9.999C79.5007 10.389 79.0241 10.6837 78.4694 10.883C77.9234 11.0823 77.3341 11.182 76.7014 11.182C76.0861 11.182 75.5054 11.0823 74.9594 10.883C74.4134 10.6837 73.9367 10.389 73.5294 9.999C73.1221 9.60033 72.8014 9.11067 72.5674 8.53C72.3334 7.94067 72.2164 7.26033 72.2164 6.489C72.2164 5.71767 72.3377 5.04167 72.5804 4.461C72.8231 3.87167 73.1481 3.37767 73.5554 2.979C73.9714 2.58033 74.4481 2.28133 74.9854 2.082C75.5314 1.88267 76.1034 1.783 76.7014 1.783C77.3167 1.783 77.8974 1.88267 78.4434 2.082C78.9894 2.28133 79.4661 2.58033 79.8734 2.979C80.2807 3.37767 80.6014 3.87167 80.8354 4.461C81.0694 5.04167 81.1864 5.71767 81.1864 6.489ZM85.8799 11.117C85.3859 11.117 84.8919 11.0997 84.3979 11.065C83.9126 11.039 83.4056 10.9697 82.8769 10.857V2.121C83.2929 2.043 83.7479 1.98667 84.2419 1.952C84.7359 1.90867 85.1952 1.887 85.6199 1.887C86.1919 1.887 86.7162 1.93033 87.1929 2.017C87.6782 2.095 88.0942 2.23367 88.4409 2.433C88.7876 2.63233 89.0562 2.89667 89.2469 3.226C89.4462 3.54667 89.5459 3.94533 89.5459 4.422C89.5459 5.14133 89.1992 5.709 88.5059 6.125C89.0779 6.34167 89.4679 6.63633 89.6759 7.009C89.8839 7.38167 89.9879 7.802 89.9879 8.27C89.9879 9.21467 89.6412 9.92533 88.9479 10.402C88.2632 10.8787 87.2406 11.117 85.8799 11.117ZM84.8529 7.074V9.401C85.0002 9.41833 85.1606 9.43133 85.3339 9.44C85.5072 9.44867 85.6979 9.453 85.9059 9.453C86.5126 9.453 87.0022 9.36633 87.3749 9.193C87.7476 9.01967 87.9339 8.699 87.9339 8.231C87.9339 7.815 87.7779 7.52033 87.4659 7.347C87.1539 7.165 86.7076 7.074 86.1269 7.074H84.8529ZM84.8529 5.527H85.8409C86.4649 5.527 86.9112 5.449 87.1799 5.293C87.4486 5.12833 87.5829 4.86833 87.5829 4.513C87.5829 4.149 87.4442 3.89333 87.1669 3.746C86.8896 3.59867 86.4822 3.525 85.9449 3.525C85.7716 3.525 85.5852 3.52933 85.3859 3.538C85.1866 3.538 85.0089 3.54667 84.8529 3.564V5.527ZM91.6113 11V1.991H97.6953V3.694H93.6393V5.462H97.2403V7.126H93.6393V9.297H97.9943V11H91.6113ZM102.134 1.887C103.486 1.887 104.522 2.12967 105.241 2.615C105.96 3.09167 106.32 3.837 106.32 4.851C106.32 5.48367 106.173 5.99933 105.878 6.398C105.592 6.788 105.176 7.09567 104.63 7.321C104.812 7.54633 105.003 7.80633 105.202 8.101C105.401 8.387 105.596 8.69033 105.787 9.011C105.986 9.323 106.177 9.65233 106.359 9.999C106.541 10.337 106.71 10.6707 106.866 11H104.591C104.426 10.7053 104.257 10.4063 104.084 10.103C103.919 9.79967 103.746 9.505 103.564 9.219C103.391 8.933 103.217 8.66433 103.044 8.413C102.871 8.153 102.697 7.919 102.524 7.711H101.523V11H99.4951V2.121C99.9371 2.03433 100.392 1.97367 100.86 1.939C101.337 1.90433 101.761 1.887 102.134 1.887ZM102.251 3.616C102.104 3.616 101.969 3.62033 101.848 3.629C101.735 3.63767 101.627 3.64633 101.523 3.655V6.099H102.095C102.858 6.099 103.404 6.00367 103.733 5.813C104.062 5.62233 104.227 5.29733 104.227 4.838C104.227 4.396 104.058 4.084 103.72 3.902C103.391 3.71133 102.901 3.616 102.251 3.616ZM70.474 14.991H72.502V24H70.474V20.178H67.068V24H65.04V14.991H67.068V18.436H70.474V14.991ZM76.2899 19.489C76.2899 19.931 76.3419 20.3297 76.4459 20.685C76.5585 21.0403 76.7145 21.348 76.9139 21.608C77.1219 21.8593 77.3732 22.0543 77.6679 22.193C77.9625 22.3317 78.3005 22.401 78.6819 22.401C79.0545 22.401 79.3882 22.3317 79.6829 22.193C79.9862 22.0543 80.2375 21.8593 80.4369 21.608C80.6449 21.348 80.8009 21.0403 80.9049 20.685C81.0175 20.3297 81.0739 19.931 81.0739 19.489C81.0739 19.047 81.0175 18.6483 80.9049 18.293C80.8009 17.929 80.6449 17.6213 80.4369 17.37C80.2375 17.11 79.9862 16.9107 79.6829 16.772C79.3882 16.6333 79.0545 16.564 78.6819 16.564C78.3005 16.564 77.9625 16.6377 77.6679 16.785C77.3732 16.9237 77.1219 17.123 76.9139 17.383C76.7145 17.6343 76.5585 17.942 76.4459 18.306C76.3419 18.6613 76.2899 19.0557 76.2899 19.489ZM83.1669 19.489C83.1669 20.2603 83.0499 20.9407 82.8159 21.53C82.5905 22.1107 82.2785 22.6003 81.8799 22.999C81.4812 23.389 81.0045 23.6837 80.4499 23.883C79.9039 24.0823 79.3145 24.182 78.6819 24.182C78.0665 24.182 77.4859 24.0823 76.9399 23.883C76.3939 23.6837 75.9172 23.389 75.5099 22.999C75.1025 22.6003 74.7819 22.1107 74.5479 21.53C74.3139 20.9407 74.1969 20.2603 74.1969 19.489C74.1969 18.7177 74.3182 18.0417 74.5609 17.461C74.8035 16.8717 75.1285 16.3777 75.5359 15.979C75.9519 15.5803 76.4285 15.2813 76.9659 15.082C77.5119 14.8827 78.0839 14.783 78.6819 14.783C79.2972 14.783 79.8779 14.8827 80.4239 15.082C80.9699 15.2813 81.4465 15.5803 81.8539 15.979C82.2612 16.3777 82.5819 16.8717 82.8159 17.461C83.0499 18.0417 83.1669 18.7177 83.1669 19.489ZM87.2494 14.991C87.4054 15.277 87.583 15.6323 87.7824 16.057C87.9904 16.473 88.2027 16.928 88.4194 17.422C88.6447 17.9073 88.8657 18.4057 89.0824 18.917C89.299 19.4283 89.5027 19.9093 89.6934 20.36C89.884 19.9093 90.0877 19.4283 90.3044 18.917C90.521 18.4057 90.7377 17.9073 90.9544 17.422C91.1797 16.928 91.3921 16.473 91.5914 16.057C91.7994 15.6323 91.9814 15.277 92.1374 14.991H93.9834C94.0701 15.589 94.1481 16.2607 94.2174 17.006C94.2954 17.7427 94.3604 18.514 94.4124 19.32C94.473 20.1173 94.525 20.919 94.5684 21.725C94.6204 22.531 94.6637 23.2893 94.6984 24H92.7224C92.6964 23.1247 92.6617 22.1713 92.6184 21.14C92.5751 20.1087 92.5101 19.0687 92.4234 18.02C92.2674 18.384 92.0941 18.787 91.9034 19.229C91.7127 19.671 91.522 20.113 91.3314 20.555C91.1494 20.997 90.9717 21.4217 90.7984 21.829C90.625 22.2277 90.4777 22.57 90.3564 22.856H88.9394C88.818 22.57 88.6707 22.2277 88.4974 21.829C88.324 21.4217 88.142 20.997 87.9514 20.555C87.7694 20.113 87.583 19.671 87.3924 19.229C87.2017 18.787 87.0284 18.384 86.8724 18.02C86.7857 19.0687 86.7207 20.1087 86.6774 21.14C86.634 22.1713 86.5994 23.1247 86.5734 24H84.5974C84.632 23.2893 84.671 22.531 84.7144 21.725C84.7664 20.919 84.8184 20.1173 84.8704 19.32C84.931 18.514 84.996 17.7427 85.0654 17.006C85.1434 16.2607 85.2257 15.589 85.3124 14.991H87.2494ZM96.5244 24V14.991H102.608V16.694H98.5524V18.462H102.153V20.126H98.5524V22.297H102.907V24H96.5244Z" fill="#39393B"/>
<path d="M28 26C33.9672 10.601 48.7213 8.20199 48.7213 8.20199C46.7213 12.5785 38.6557 17.8629 38.6557 17.8629C49.7705 13.5511 54.8852 2.82045 56 0.226937C56 0.0648419 56 0 56 0C53.2787 3.01496 51.9672 2.75561 39.8361 8.65586C32.0656 12.4165 29.1147 19.0299 28 23.4713C26.8852 19.0623 23.9344 12.4165 16.1639 8.65586C4.03279 2.78803 2.72131 3.01496 0 0C0 0 0 0.0972608 0 0.226937C1.08197 2.82045 6.19672 13.5511 17.3443 17.8629C17.3443 17.8629 9.27868 12.5785 7.27868 8.20199C7.27868 8.16957 22.0328 10.5686 28 26Z" fill="#414042"/>
</g>
<defs>
<filter id="filter0_d" x="-140" y="-38" width="1484" height="112" filterUnits="userSpaceOnUse" color-interpolation-filters="sRGB">
<feFlood flood-opacity="0" result="BackgroundImageFix"/>
<feColorMatrix in="SourceAlpha" type="matrix" values="0 0 0 0 0 0 0 0 0 0 0 0 0 0 0 0 0 0 127 0" result="hardAlpha"/>
<feOffset dy="4"/>
<feGaussianBlur stdDeviation="11"/>
<feColorMatrix type="matrix" values="0 0 0 0 0.0435503 0 0 0 0 0.236686 0 0 0 0 0.27645 0 0 0 0.08 0"/>
<feBlend mode="normal" in2="BackgroundImageFix" result="effect1_dropShadow"/>
<feBlend mode="normal" in="SourceGraphic" in2="effect1_dropShadow" result="shape"/>
</filter>
<clipPath id="clip0">
<rect width="1440" height="3884" fill="white" transform="translate(-118 -20)"/>
</clipPath>
</defs>
</svg>
